# xmcd
#
# Track frame offsets: 
#        150
#        23245
#        43353
#        55294
#        79354
#        93182
#        124778
#        138120
#        150779
#        163567
#        176004
#        191763
#        216017
#        254583
#        265600
#        279370
#        300586
#        314448
#
# Disc length: 4583 seconds
#
# Revision: 0
# Processed by: cddbd v1.5.2PL0 Copyright (c) Steve Scherf et al.
# Submitted via: ExactAudioCopy v0.99pb5
#
DISCID=f411e512
DTITLE=Various Artist - 100 Percent Blues, Vol.1
DYEAR=1999
DGENRE=Blues
TTITLE0=BB King: Don't Answer The Door
TTITLE1=John Lee Hooker: I'm In The Mood
TTITLE2=Howlin' Wolf: Spoonful
TTITLE3=Muddy Waters: Sad, Sad Day
TTITLE4=Freddy King: Have You Ever Love The Woman
TTITLE5=BB King: Sweet Sixteen
TTITLE6=John Lee Hooker: One Bourbon, One Scotch One Beer
TTITLE7=Muddy Waters: Hoochie Coochie Man
TTITLE8=Taj Mahal: Statesboro Blues
TTITLE9=Howlin' Wolf: Killing Floor
TTITLE10=Muddy Waters: I Can't Be Satisfied
TTITLE11=BB King: The Trill Is Gone
TTITLE12=Taj Mahal: The Celebrated Walking Blues
TTITLE13=Fleetwood Mac: The Big Boat
TTITLE14=Etta James: I Just Wanna Make Love To You
TTITLE15=RL Burnside: It's Bad You Know
TTITLE16=Sonny Boy Williamson: Help Me
TTITLE17=RL Burnside: Bad Luck City
EXTD=
EXTT0=
EXTT1=
EXTT2=
EXTT3=
EXTT4=
EXTT5=
EXTT6=
EXTT7=
EXTT8=
EXTT9=
EXTT10=
EXTT11=
EXTT12=
EXTT13=
EXTT14=
EXTT15=
EXTT16=
EXTT17=
PLAYORDER=
